<svg xmlns="http://www.w3.org/2000/svg" xmlns:xlink="http://www.w3.org/1999/xlink" width="500" zoomAndPan="magnify" viewBox="0 0 375 374.999991" height="500" preserveAspectRatio="xMidYMid meet" version="1.0"><defs><g/><clipPath id="f79f888920"><path d="M 146.5625 121.042969 L 228.3125 121.042969 L 228.3125 202.792969 L 146.5625 202.792969 Z M 146.5625 121.042969 " clip-rule="nonzero"/></clipPath><clipPath id="0dd4d353e0"><path d="M 149 135 L 202 135 L 202 202.792969 L 149 202.792969 Z M 149 135 " clip-rule="nonzero"/></clipPath><clipPath id="455ed23c54"><path d="M 173 153 L 226 153 L 226 202.792969 L 173 202.792969 Z M 173 153 " clip-rule="nonzero"/></clipPath><clipPath id="0edb44c24f"><path d="M 173 153 L 183 153 L 183 202.792969 L 173 202.792969 Z M 173 153 " clip-rule="nonzero"/></clipPath></defs><rect x="-37.5" width="450" fill="#ffffff" y="-37.499999" height="449.999989" fill-opacity="1"/><rect x="-37.5" width="450" fill="#ffffff" y="-37.499999" height="449.999989" fill-opacity="1"/><rect x="-37.5" width="450" fill="#ffffff" y="-37.499999" height="449.999989" fill-opacity="1"/><g clip-path="url(#f79f888920)"><path fill="#374266" d="M 228.3125 161.917969 C 228.3125 165.550781 227.839844 169.070312 226.949219 172.425781 C 226.660156 173.507812 226.332031 174.574219 225.960938 175.621094 C 222.90625 184.207031 217.058594 191.472656 209.511719 196.324219 C 207.875 197.375 206.160156 198.316406 204.375 199.128906 C 203.574219 199.492188 202.761719 199.832031 201.9375 200.144531 C 199.929688 200.90625 197.847656 201.515625 195.703125 201.957031 C 193.632812 202.382812 191.503906 202.652344 189.332031 202.75 C 188.703125 202.777344 188.074219 202.792969 187.4375 202.792969 C 186.835938 202.792969 186.238281 202.777344 185.644531 202.75 C 181.328125 202.566406 177.183594 201.710938 173.3125 200.285156 C 172.324219 199.921875 171.355469 199.519531 170.40625 199.085938 C 168.601562 198.253906 166.867188 197.300781 165.21875 196.226562 C 164.117188 195.515625 163.058594 194.75 162.035156 193.9375 C 156.375 189.445312 151.933594 183.484375 149.292969 176.625 C 148.925781 175.6875 148.601562 174.734375 148.308594 173.765625 C 147.171875 170.015625 146.5625 166.035156 146.5625 161.917969 C 146.5625 156.730469 147.53125 151.769531 149.292969 147.207031 C 149.300781 147.183594 149.308594 147.160156 149.316406 147.136719 C 150.9375 142.96875 153.214844 139.132812 156.03125 135.757812 C 156.105469 135.664062 156.183594 135.574219 156.261719 135.480469 C 163.761719 126.648438 174.945312 121.042969 187.4375 121.042969 C 210.011719 121.042969 228.3125 139.34375 228.3125 161.917969 Z M 228.3125 161.917969 " fill-opacity="1" fill-rule="nonzero"/></g><path fill="#c5c6e0" d="M 184.914062 134.386719 L 184.914062 146.507812 C 184.914062 147.691406 183.953125 148.652344 182.769531 148.652344 C 181.585938 148.652344 180.625 147.691406 180.625 146.507812 L 180.625 134.488281 C 180.625 131.152344 177.984375 128.355469 174.648438 128.292969 C 171.234375 128.230469 168.4375 130.988281 168.4375 134.386719 L 168.4375 146.507812 C 168.4375 147.691406 167.476562 148.652344 166.289062 148.652344 C 165.105469 148.652344 164.144531 147.691406 164.144531 146.507812 L 164.144531 134.386719 C 164.144531 128.652344 168.792969 124 174.53125 124 C 180.265625 124 184.914062 128.652344 184.914062 134.386719 Z M 184.914062 134.386719 " fill-opacity="1" fill-rule="nonzero"/><g clip-path="url(#0dd4d353e0)"><path fill="#ff526c" d="M 201.9375 135.757812 L 201.9375 200.144531 C 199.929688 200.910156 197.847656 201.515625 195.703125 201.957031 C 193.632812 202.382812 191.503906 202.652344 189.332031 202.75 C 188.703125 202.777344 188.074219 202.792969 187.4375 202.792969 C 186.835938 202.792969 186.238281 202.777344 185.644531 202.75 C 180.226562 202.519531 175.078125 201.230469 170.40625 199.085938 C 168.601562 198.253906 166.867188 197.300781 165.21875 196.226562 C 164.117188 195.515625 163.058594 194.75 162.035156 193.9375 C 156.375 189.445312 151.933594 183.484375 149.292969 176.625 L 149.292969 135.757812 Z M 201.9375 135.757812 " fill-opacity="1" fill-rule="nonzero"/></g><path fill="#e83150" d="M 158.496094 190.777344 C 154.515625 186.789062 151.355469 181.980469 149.292969 176.625 L 149.292969 135.757812 L 158.496094 135.757812 Z M 158.496094 190.777344 " fill-opacity="1" fill-rule="nonzero"/><path fill="#f2f2f7" d="M 192.0625 134.386719 L 192.0625 146.507812 C 192.0625 147.691406 191.101562 148.652344 189.914062 148.652344 C 188.730469 148.652344 187.769531 147.691406 187.769531 146.507812 L 187.769531 134.488281 C 187.769531 131.152344 185.128906 128.355469 181.792969 128.292969 C 178.378906 128.230469 175.582031 130.988281 175.582031 134.386719 L 175.582031 146.507812 C 175.582031 147.691406 174.621094 148.652344 173.4375 148.652344 C 172.25 148.652344 171.289062 147.691406 171.289062 146.507812 L 171.289062 134.386719 C 171.289062 128.652344 175.941406 124 181.675781 124 C 187.414062 124 192.0625 128.652344 192.0625 134.386719 Z M 192.0625 134.386719 " fill-opacity="1" fill-rule="nonzero"/><path fill="#c5c6e0" d="M 208.988281 149.453125 L 208.988281 161.574219 C 208.988281 162.757812 208.027344 163.71875 206.84375 163.71875 C 205.65625 163.71875 204.695312 162.757812 204.695312 161.574219 L 204.695312 149.554688 C 204.695312 146.21875 202.058594 143.425781 198.71875 143.363281 C 195.308594 143.296875 192.507812 146.054688 192.507812 149.453125 L 192.507812 161.574219 C 192.507812 162.761719 191.546875 163.722656 190.363281 163.722656 C 189.179688 163.722656 188.21875 162.761719 188.21875 161.574219 L 188.21875 149.453125 C 188.21875 143.71875 192.867188 139.070312 198.601562 139.070312 C 204.339844 139.070312 208.988281 143.71875 208.988281 149.453125 Z M 208.988281 149.453125 " fill-opacity="1" fill-rule="nonzero"/><g clip-path="url(#455ed23c54)"><path fill="#ffe261" d="M 225.960938 153.773438 L 225.960938 175.621094 C 222.90625 184.207031 217.058594 191.472656 209.511719 196.324219 C 207.875 197.375 206.160156 198.316406 204.375 199.128906 C 203.574219 199.492188 202.761719 199.832031 201.9375 200.144531 C 199.929688 200.90625 197.847656 201.515625 195.703125 201.957031 C 193.632812 202.382812 191.503906 202.652344 189.332031 202.75 C 188.703125 202.777344 188.074219 202.792969 187.4375 202.792969 C 186.835938 202.792969 186.238281 202.777344 185.644531 202.75 C 181.328125 202.566406 177.183594 201.710938 173.3125 200.285156 L 173.3125 153.773438 Z M 225.960938 153.773438 " fill-opacity="1" fill-rule="nonzero"/></g><g clip-path="url(#0edb44c24f)"><path fill="#f58d2c" d="M 182.460938 202.492188 C 180.980469 202.546875 174.925781 201.011719 173.3125 200.285156 L 173.3125 153.773438 L 182.515625 153.773438 Z M 182.460938 202.492188 " fill-opacity="1" fill-rule="nonzero"/></g><path fill="#f2f2f7" d="M 215.804688 149.453125 L 215.804688 161.574219 C 215.804688 162.757812 214.847656 163.71875 213.660156 163.71875 C 212.476562 163.71875 211.515625 162.757812 211.515625 161.574219 L 211.515625 149.554688 C 211.515625 146.21875 208.875 143.425781 205.539062 143.363281 C 202.125 143.296875 199.328125 146.054688 199.328125 149.453125 L 199.328125 161.574219 C 199.328125 162.761719 198.367188 163.722656 197.179688 163.722656 C 195.996094 163.722656 195.035156 162.761719 195.035156 161.574219 L 195.035156 149.453125 C 195.035156 143.71875 199.683594 139.070312 205.421875 139.070312 C 211.15625 139.070312 215.804688 143.71875 215.804688 149.453125 Z M 215.804688 149.453125 " fill-opacity="1" fill-rule="nonzero"/><g fill="#374266" fill-opacity="1"><g transform="translate(96.157183, 235.93768)"><g><path d="M 1.546875 0 L 1.546875 -17.765625 L 8.65625 -17.765625 C 10.613281 -17.765625 12.082031 -17.335938 13.0625 -16.484375 C 14.050781 -15.628906 14.546875 -14.535156 14.546875 -13.203125 C 14.546875 -12.160156 14.242188 -11.316406 13.640625 -10.671875 C 13.035156 -10.023438 12.269531 -9.597656 11.34375 -9.390625 L 11.34375 -9.21875 C 12.019531 -9.1875 12.65625 -8.992188 13.25 -8.640625 C 13.84375 -8.296875 14.320312 -7.804688 14.6875 -7.171875 C 15.0625 -6.546875 15.25 -5.789062 15.25 -4.90625 C 15.25 -3.96875 15.015625 -3.128906 14.546875 -2.390625 C 14.078125 -1.648438 13.390625 -1.066406 12.484375 -0.640625 C 11.578125 -0.210938 10.457031 0 9.125 0 Z M 5.296875 -3.0625 L 8.359375 -3.0625 C 9.410156 -3.0625 10.175781 -3.265625 10.65625 -3.671875 C 11.132812 -4.078125 11.375 -4.613281 11.375 -5.28125 C 11.375 -6.019531 11.109375 -6.617188 10.578125 -7.078125 C 10.054688 -7.546875 9.347656 -7.78125 8.453125 -7.78125 L 5.296875 -7.78125 Z M 5.296875 -10.328125 L 8.078125 -10.328125 C 8.847656 -10.328125 9.488281 -10.523438 10 -10.921875 C 10.507812 -11.328125 10.765625 -11.878906 10.765625 -12.578125 C 10.765625 -13.222656 10.535156 -13.738281 10.078125 -14.125 C 9.628906 -14.519531 8.988281 -14.71875 8.15625 -14.71875 L 5.296875 -14.71875 Z M 5.296875 -10.328125 "/></g></g></g><g fill="#374266" fill-opacity="1"><g transform="translate(114.080359, 235.93768)"><g><path d="M 4.609375 0 L 0.578125 0 L 6.71875 -17.765625 L 11.546875 -17.765625 L 17.671875 0 L 13.65625 0 L 12.328125 -4.046875 L 5.921875 -4.046875 Z M 6.875 -6.984375 L 11.390625 -6.984375 L 9.203125 -13.703125 L 9.0625 -13.703125 Z M 6.875 -6.984375 "/></g></g></g><g fill="#374266" fill-opacity="1"><g transform="translate(134.128291, 235.93768)"><g><path d="M 13.328125 -12.015625 C 13.085938 -12.847656 12.644531 -13.5 12 -13.96875 C 11.363281 -14.445312 10.5625 -14.6875 9.59375 -14.6875 C 8.238281 -14.6875 7.140625 -14.179688 6.296875 -13.171875 C 5.453125 -12.171875 5.03125 -10.742188 5.03125 -8.890625 C 5.03125 -7.035156 5.441406 -5.601562 6.265625 -4.59375 C 7.097656 -3.582031 8.222656 -3.078125 9.640625 -3.078125 C 10.890625 -3.078125 11.867188 -3.398438 12.578125 -4.046875 C 13.296875 -4.703125 13.664062 -5.578125 13.6875 -6.671875 L 9.875 -6.671875 L 9.875 -9.5 L 17.296875 -9.5 L 17.296875 -7.265625 C 17.296875 -5.710938 16.96875 -4.375 16.3125 -3.25 C 15.65625 -2.125 14.75 -1.257812 13.59375 -0.65625 C 12.4375 -0.0507812 11.113281 0.25 9.625 0.25 C 7.957031 0.25 6.492188 -0.117188 5.234375 -0.859375 C 3.972656 -1.597656 2.988281 -2.644531 2.28125 -4 C 1.582031 -5.363281 1.234375 -6.984375 1.234375 -8.859375 C 1.234375 -10.785156 1.597656 -12.429688 2.328125 -13.796875 C 3.066406 -15.160156 4.0625 -16.203125 5.3125 -16.921875 C 6.570312 -17.640625 7.984375 -18 9.546875 -18 C 10.878906 -18 12.085938 -17.742188 13.171875 -17.234375 C 14.265625 -16.734375 15.15625 -16.03125 15.84375 -15.125 C 16.539062 -14.226562 16.972656 -13.191406 17.140625 -12.015625 Z M 13.328125 -12.015625 "/></g></g></g><g fill="#374266" fill-opacity="1"><g transform="translate(154.48843, 235.93768)"><g><path d="M 13.328125 -12.015625 C 13.085938 -12.847656 12.644531 -13.5 12 -13.96875 C 11.363281 -14.445312 10.5625 -14.6875 9.59375 -14.6875 C 8.238281 -14.6875 7.140625 -14.179688 6.296875 -13.171875 C 5.453125 -12.171875 5.03125 -10.742188 5.03125 -8.890625 C 5.03125 -7.035156 5.441406 -5.601562 6.265625 -4.59375 C 7.097656 -3.582031 8.222656 -3.078125 9.640625 -3.078125 C 10.890625 -3.078125 11.867188 -3.398438 12.578125 -4.046875 C 13.296875 -4.703125 13.664062 -5.578125 13.6875 -6.671875 L 9.875 -6.671875 L 9.875 -9.5 L 17.296875 -9.5 L 17.296875 -7.265625 C 17.296875 -5.710938 16.96875 -4.375 16.3125 -3.25 C 15.65625 -2.125 14.75 -1.257812 13.59375 -0.65625 C 12.4375 -0.0507812 11.113281 0.25 9.625 0.25 C 7.957031 0.25 6.492188 -0.117188 5.234375 -0.859375 C 3.972656 -1.597656 2.988281 -2.644531 2.28125 -4 C 1.582031 -5.363281 1.234375 -6.984375 1.234375 -8.859375 C 1.234375 -10.785156 1.597656 -12.429688 2.328125 -13.796875 C 3.066406 -15.160156 4.0625 -16.203125 5.3125 -16.921875 C 6.570312 -17.640625 7.984375 -18 9.546875 -18 C 10.878906 -18 12.085938 -17.742188 13.171875 -17.234375 C 14.265625 -16.734375 15.15625 -16.03125 15.84375 -15.125 C 16.539062 -14.226562 16.972656 -13.191406 17.140625 -12.015625 Z M 13.328125 -12.015625 "/></g></g></g><g fill="#374266" fill-opacity="1"><g transform="translate(174.848567, 235.93768)"><g><path d="M 5.296875 -17.765625 L 5.296875 0 L 1.546875 0 L 1.546875 -17.765625 Z M 5.296875 -17.765625 "/></g></g></g><g fill="#374266" fill-opacity="1"><g transform="translate(183.483522, 235.93768)"><g><path d="M 17.859375 -8.875 C 17.859375 -6.9375 17.492188 -5.289062 16.765625 -3.9375 C 16.035156 -2.582031 15.039062 -1.546875 13.78125 -0.828125 C 12.53125 -0.109375 11.117188 0.25 9.546875 0.25 C 7.972656 0.25 6.554688 -0.109375 5.296875 -0.828125 C 4.046875 -1.546875 3.054688 -2.585938 2.328125 -3.953125 C 1.597656 -5.316406 1.234375 -6.957031 1.234375 -8.875 C 1.234375 -10.8125 1.597656 -12.457031 2.328125 -13.8125 C 3.054688 -15.175781 4.046875 -16.210938 5.296875 -16.921875 C 6.554688 -17.640625 7.972656 -18 9.546875 -18 C 11.117188 -18 12.53125 -17.640625 13.78125 -16.921875 C 15.039062 -16.210938 16.035156 -15.175781 16.765625 -13.8125 C 17.492188 -12.457031 17.859375 -10.8125 17.859375 -8.875 Z M 14.0625 -8.875 C 14.0625 -10.757812 13.648438 -12.195312 12.828125 -13.1875 C 12.003906 -14.1875 10.910156 -14.6875 9.546875 -14.6875 C 8.179688 -14.6875 7.085938 -14.1875 6.265625 -13.1875 C 5.441406 -12.195312 5.03125 -10.757812 5.03125 -8.875 C 5.03125 -7 5.441406 -5.5625 6.265625 -4.5625 C 7.085938 -3.570312 8.179688 -3.078125 9.546875 -3.078125 C 10.910156 -3.078125 12.003906 -3.570312 12.828125 -4.5625 C 13.648438 -5.5625 14.0625 -7 14.0625 -8.875 Z M 14.0625 -8.875 "/></g></g></g><g fill="#374266" fill-opacity="1"><g transform="translate(204.364016, 235.93768)"><g><path d="M 11.171875 -12.65625 C 11.109375 -13.351562 10.8125 -13.894531 10.28125 -14.28125 C 9.75 -14.664062 9.035156 -14.859375 8.140625 -14.859375 C 7.222656 -14.859375 6.519531 -14.671875 6.03125 -14.296875 C 5.539062 -13.921875 5.296875 -13.445312 5.296875 -12.875 C 5.273438 -12.238281 5.546875 -11.753906 6.109375 -11.421875 C 6.671875 -11.097656 7.332031 -10.847656 8.09375 -10.671875 L 9.703125 -10.296875 C 10.722656 -10.066406 11.632812 -9.726562 12.4375 -9.28125 C 13.238281 -8.84375 13.867188 -8.28125 14.328125 -7.59375 C 14.785156 -6.90625 15.015625 -6.066406 15.015625 -5.078125 C 15.015625 -3.453125 14.40625 -2.15625 13.1875 -1.1875 C 11.976562 -0.226562 10.289062 0.25 8.125 0.25 C 5.96875 0.25 4.25 -0.238281 2.96875 -1.21875 C 1.6875 -2.207031 1.019531 -3.660156 0.96875 -5.578125 L 4.609375 -5.578125 C 4.671875 -4.679688 5.019531 -4.007812 5.65625 -3.5625 C 6.289062 -3.113281 7.097656 -2.890625 8.078125 -2.890625 C 9.035156 -2.890625 9.796875 -3.09375 10.359375 -3.5 C 10.929688 -3.90625 11.222656 -4.429688 11.234375 -5.078125 C 11.222656 -5.679688 10.957031 -6.144531 10.4375 -6.46875 C 9.914062 -6.789062 9.175781 -7.066406 8.21875 -7.296875 L 6.28125 -7.78125 C 4.78125 -8.144531 3.597656 -8.71875 2.734375 -9.5 C 1.867188 -10.28125 1.4375 -11.320312 1.4375 -12.625 C 1.4375 -13.695312 1.722656 -14.632812 2.296875 -15.4375 C 2.878906 -16.25 3.679688 -16.878906 4.703125 -17.328125 C 5.722656 -17.773438 6.878906 -18 8.171875 -18 C 9.484375 -18 10.632812 -17.773438 11.625 -17.328125 C 12.613281 -16.878906 13.378906 -16.25 13.921875 -15.4375 C 14.472656 -14.632812 14.757812 -13.707031 14.78125 -12.65625 Z M 11.171875 -12.65625 "/></g></g></g><g fill="#374266" fill-opacity="1"><g transform="translate(222.139757, 235.93768)"><g><path d="M 1.546875 0 L 1.546875 -17.765625 L 5.296875 -17.765625 L 5.296875 -10.4375 L 12.921875 -10.4375 L 12.921875 -17.765625 L 16.671875 -17.765625 L 16.671875 0 L 12.921875 0 L 12.921875 -7.34375 L 5.296875 -7.34375 L 5.296875 0 Z M 1.546875 0 "/></g></g></g><g fill="#374266" fill-opacity="1"><g transform="translate(242.144325, 235.93768)"><g><path d="M 17.859375 -8.875 C 17.859375 -6.9375 17.492188 -5.289062 16.765625 -3.9375 C 16.035156 -2.582031 15.039062 -1.546875 13.78125 -0.828125 C 12.53125 -0.109375 11.117188 0.25 9.546875 0.25 C 7.972656 0.25 6.554688 -0.109375 5.296875 -0.828125 C 4.046875 -1.546875 3.054688 -2.585938 2.328125 -3.953125 C 1.597656 -5.316406 1.234375 -6.957031 1.234375 -8.875 C 1.234375 -10.8125 1.597656 -12.457031 2.328125 -13.8125 C 3.054688 -15.175781 4.046875 -16.210938 5.296875 -16.921875 C 6.554688 -17.640625 7.972656 -18 9.546875 -18 C 11.117188 -18 12.53125 -17.640625 13.78125 -16.921875 C 15.039062 -16.210938 16.035156 -15.175781 16.765625 -13.8125 C 17.492188 -12.457031 17.859375 -10.8125 17.859375 -8.875 Z M 14.0625 -8.875 C 14.0625 -10.757812 13.648438 -12.195312 12.828125 -13.1875 C 12.003906 -14.1875 10.910156 -14.6875 9.546875 -14.6875 C 8.179688 -14.6875 7.085938 -14.1875 6.265625 -13.1875 C 5.441406 -12.195312 5.03125 -10.757812 5.03125 -8.875 C 5.03125 -7 5.441406 -5.5625 6.265625 -4.5625 C 7.085938 -3.570312 8.179688 -3.078125 9.546875 -3.078125 C 10.910156 -3.078125 12.003906 -3.570312 12.828125 -4.5625 C 13.648438 -5.5625 14.0625 -7 14.0625 -8.875 Z M 14.0625 -8.875 "/></g></g></g><g fill="#374266" fill-opacity="1"><g transform="translate(263.024813, 235.93768)"><g><path d="M 1.546875 0 L 1.546875 -17.765625 L 8.546875 -17.765625 C 9.898438 -17.765625 11.050781 -17.503906 12 -16.984375 C 12.945312 -16.472656 13.671875 -15.765625 14.171875 -14.859375 C 14.671875 -13.960938 14.921875 -12.925781 14.921875 -11.75 C 14.921875 -10.5625 14.664062 -9.519531 14.15625 -8.625 C 13.644531 -7.726562 12.90625 -7.023438 11.9375 -6.515625 C 10.976562 -6.015625 9.816406 -5.765625 8.453125 -5.765625 L 5.296875 -5.765625 L 5.296875 0 Z M 5.296875 -8.765625 L 7.84375 -8.765625 C 8.925781 -8.765625 9.726562 -9.039062 10.25 -9.59375 C 10.78125 -10.144531 11.046875 -10.863281 11.046875 -11.75 C 11.046875 -12.625 10.78125 -13.332031 10.25 -13.875 C 9.726562 -14.414062 8.921875 -14.6875 7.828125 -14.6875 L 5.296875 -14.6875 Z M 5.296875 -8.765625 "/></g></g></g><g fill="#fa4661" fill-opacity="1"><g transform="translate(144.179366, 250.476152)"><g><path d="M 0.640625 0 L 0.640625 -7.390625 L 5.625 -7.390625 L 5.625 -6.109375 L 2.203125 -6.109375 L 2.203125 -4.34375 L 5.375 -4.34375 L 5.375 -3.0625 L 2.203125 -3.0625 L 2.203125 -1.296875 L 5.640625 -1.296875 L 5.640625 0 Z M 0.640625 0 "/></g></g></g><g fill="#fa4661" fill-opacity="1"><g transform="translate(152.813149, 250.476152)"><g><path d="M 7.171875 -4.8125 L 5.59375 -4.8125 C 5.53125 -5.21875 5.351562 -5.535156 5.0625 -5.765625 C 4.78125 -5.992188 4.425781 -6.109375 4 -6.109375 C 3.425781 -6.109375 2.960938 -5.898438 2.609375 -5.484375 C 2.265625 -5.066406 2.09375 -4.472656 2.09375 -3.703125 C 2.09375 -2.910156 2.265625 -2.304688 2.609375 -1.890625 C 2.960938 -1.484375 3.421875 -1.28125 3.984375 -1.28125 C 4.398438 -1.28125 4.75 -1.390625 5.03125 -1.609375 C 5.320312 -1.828125 5.507812 -2.132812 5.59375 -2.53125 L 7.171875 -2.515625 C 7.117188 -2.066406 6.957031 -1.640625 6.6875 -1.234375 C 6.414062 -0.835938 6.050781 -0.515625 5.59375 -0.265625 C 5.132812 -0.0234375 4.585938 0.09375 3.953125 0.09375 C 3.296875 0.09375 2.707031 -0.0507812 2.1875 -0.34375 C 1.664062 -0.644531 1.253906 -1.078125 0.953125 -1.640625 C 0.660156 -2.210938 0.515625 -2.898438 0.515625 -3.703125 C 0.515625 -4.503906 0.664062 -5.1875 0.96875 -5.75 C 1.269531 -6.320312 1.679688 -6.753906 2.203125 -7.046875 C 2.722656 -7.347656 3.304688 -7.5 3.953125 -7.5 C 4.523438 -7.5 5.039062 -7.390625 5.5 -7.171875 C 5.957031 -6.960938 6.332031 -6.65625 6.625 -6.25 C 6.914062 -5.851562 7.097656 -5.375 7.171875 -4.8125 Z M 7.171875 -4.8125 "/></g></g></g><g fill="#fa4661" fill-opacity="1"><g transform="translate(162.866537, 250.476152)"><g><path d="M 7.4375 -3.703125 C 7.4375 -2.890625 7.285156 -2.203125 6.984375 -1.640625 C 6.679688 -1.078125 6.265625 -0.644531 5.734375 -0.34375 C 5.210938 -0.0507812 4.628906 0.09375 3.984375 0.09375 C 3.316406 0.09375 2.722656 -0.0507812 2.203125 -0.34375 C 1.679688 -0.644531 1.269531 -1.078125 0.96875 -1.640625 C 0.664062 -2.210938 0.515625 -2.898438 0.515625 -3.703125 C 0.515625 -4.503906 0.664062 -5.1875 0.96875 -5.75 C 1.269531 -6.320312 1.679688 -6.753906 2.203125 -7.046875 C 2.722656 -7.347656 3.316406 -7.5 3.984375 -7.5 C 4.628906 -7.5 5.210938 -7.347656 5.734375 -7.046875 C 6.265625 -6.753906 6.679688 -6.320312 6.984375 -5.75 C 7.285156 -5.1875 7.4375 -4.503906 7.4375 -3.703125 Z M 5.859375 -3.703125 C 5.859375 -4.484375 5.6875 -5.078125 5.34375 -5.484375 C 5 -5.898438 4.546875 -6.109375 3.984375 -6.109375 C 3.410156 -6.109375 2.953125 -5.898438 2.609375 -5.484375 C 2.265625 -5.078125 2.09375 -4.484375 2.09375 -3.703125 C 2.09375 -2.921875 2.265625 -2.320312 2.609375 -1.90625 C 2.953125 -1.488281 3.410156 -1.28125 3.984375 -1.28125 C 4.546875 -1.28125 5 -1.488281 5.34375 -1.90625 C 5.6875 -2.320312 5.859375 -2.921875 5.859375 -3.703125 Z M 5.859375 -3.703125 "/></g></g></g><g fill="#fa4661" fill-opacity="1"><g transform="translate(173.223353, 250.476152)"><g><path d="M 0.640625 -7.390625 L 2.578125 -7.390625 L 4.609375 -2.421875 L 4.703125 -2.421875 L 6.734375 -7.390625 L 8.65625 -7.390625 L 8.65625 0 L 7.140625 0 L 7.140625 -4.8125 L 7.078125 -4.8125 L 5.171875 -0.03125 L 4.140625 -0.03125 L 2.21875 -4.828125 L 2.15625 -4.828125 L 2.15625 0 L 0.640625 0 Z M 0.640625 -7.390625 "/></g></g></g><g fill="#fa4661" fill-opacity="1"><g transform="translate(185.025055, 250.476152)"><g><path d="M 0.640625 -7.390625 L 2.578125 -7.390625 L 4.609375 -2.421875 L 4.703125 -2.421875 L 6.734375 -7.390625 L 8.65625 -7.390625 L 8.65625 0 L 7.140625 0 L 7.140625 -4.8125 L 7.078125 -4.8125 L 5.171875 -0.03125 L 4.140625 -0.03125 L 2.21875 -4.828125 L 2.15625 -4.828125 L 2.15625 0 L 0.640625 0 Z M 0.640625 -7.390625 "/></g></g></g><g fill="#fa4661" fill-opacity="1"><g transform="translate(196.826757, 250.476152)"><g><path d="M 0.640625 0 L 0.640625 -7.390625 L 5.625 -7.390625 L 5.625 -6.109375 L 2.203125 -6.109375 L 2.203125 -4.34375 L 5.375 -4.34375 L 5.375 -3.0625 L 2.203125 -3.0625 L 2.203125 -1.296875 L 5.640625 -1.296875 L 5.640625 0 Z M 0.640625 0 "/></g></g></g><g fill="#fa4661" fill-opacity="1"><g transform="translate(205.46054, 250.476152)"><g><path d="M 0.640625 0 L 0.640625 -7.390625 L 3.5625 -7.390625 C 4.40625 -7.390625 5.054688 -7.171875 5.515625 -6.734375 C 5.984375 -6.296875 6.21875 -5.710938 6.21875 -4.984375 C 6.21875 -4.472656 6.101562 -4.035156 5.875 -3.671875 C 5.644531 -3.316406 5.320312 -3.050781 4.90625 -2.875 L 6.484375 0 L 4.75 0 L 3.34375 -2.625 L 2.203125 -2.625 L 2.203125 0 Z M 2.203125 -3.875 L 3.265625 -3.875 C 4.160156 -3.875 4.609375 -4.242188 4.609375 -4.984375 C 4.609375 -5.742188 4.160156 -6.125 3.265625 -6.125 L 2.203125 -6.125 Z M 2.203125 -3.875 "/></g></g></g><g fill="#fa4661" fill-opacity="1"><g transform="translate(214.538628, 250.476152)"><g><path d="M 7.171875 -4.8125 L 5.59375 -4.8125 C 5.53125 -5.21875 5.351562 -5.535156 5.0625 -5.765625 C 4.78125 -5.992188 4.425781 -6.109375 4 -6.109375 C 3.425781 -6.109375 2.960938 -5.898438 2.609375 -5.484375 C 2.265625 -5.066406 2.09375 -4.472656 2.09375 -3.703125 C 2.09375 -2.910156 2.265625 -2.304688 2.609375 -1.890625 C 2.960938 -1.484375 3.421875 -1.28125 3.984375 -1.28125 C 4.398438 -1.28125 4.75 -1.390625 5.03125 -1.609375 C 5.320312 -1.828125 5.507812 -2.132812 5.59375 -2.53125 L 7.171875 -2.515625 C 7.117188 -2.066406 6.957031 -1.640625 6.6875 -1.234375 C 6.414062 -0.835938 6.050781 -0.515625 5.59375 -0.265625 C 5.132812 -0.0234375 4.585938 0.09375 3.953125 0.09375 C 3.296875 0.09375 2.707031 -0.0507812 2.1875 -0.34375 C 1.664062 -0.644531 1.253906 -1.078125 0.953125 -1.640625 C 0.660156 -2.210938 0.515625 -2.898438 0.515625 -3.703125 C 0.515625 -4.503906 0.664062 -5.1875 0.96875 -5.75 C 1.269531 -6.320312 1.679688 -6.753906 2.203125 -7.046875 C 2.722656 -7.347656 3.304688 -7.5 3.953125 -7.5 C 4.523438 -7.5 5.039062 -7.390625 5.5 -7.171875 C 5.957031 -6.960938 6.332031 -6.65625 6.625 -6.25 C 6.914062 -5.851562 7.097656 -5.375 7.171875 -4.8125 Z M 7.171875 -4.8125 "/></g></g></g><g fill="#fa4661" fill-opacity="1"><g transform="translate(224.592016, 250.476152)"><g><path d="M 0.640625 0 L 0.640625 -7.390625 L 5.625 -7.390625 L 5.625 -6.109375 L 2.203125 -6.109375 L 2.203125 -4.34375 L 5.375 -4.34375 L 5.375 -3.0625 L 2.203125 -3.0625 L 2.203125 -1.296875 L 5.640625 -1.296875 L 5.640625 0 Z M 0.640625 0 "/></g></g></g><path stroke-linecap="butt" transform="matrix(0.743494, 0, 0, 0.75, 97.740452, 245.976166)" fill="none" stroke-linejoin="miter" d="M 0.00233468 2.500529 L 50.450345 2.500529 " stroke="#374266" stroke-width="5" stroke-opacity="1" stroke-miterlimit="4"/><path stroke-linecap="butt" transform="matrix(0.743494, 0, 0, 0.75, 238.063026, 245.976166)" fill="none" stroke-linejoin="miter" d="M -0.000707022 2.500529 L 50.452557 2.500529 " stroke="#374266" stroke-width="5" stroke-opacity="1" stroke-miterlimit="4"/></svg>